<svg xmlns="http://www.w3.org/2000/svg" viewBox="0 0 173 171">
  <path fill="#bead7f" opacity="0.8" d="M66 170c-13-1-25-4-23-7 1-2 3-1 11 1 9 3 11 3 21 3l16-2 7-1c3 0 2 0-1 1l-5 2h-2c0 1-5 3-13 4l-11-1zM7 129c-5-11-5-13-7-22V97l1-8c-2-17 9-36 27-51l15-9 9-5c3-4 8-5 13-3l10 2 13 1c6 1 22 6 24 8l4 1c2 0 2-1 2-2-1-2 2-4 3-3l1 2 2 3c3 0 5 5 4 9l4 8a69 69 0 0 1 13 23c2 4 2 7 3 19 0 7 0 11-2 17l-2 9c-1 1-3 0-3-2h1l1-3c0-5 1-6 2-6v-1l-1-11c-1-18-8-34-23-49a61 61 0 0 0-45-17c-6 1-8 1-9 3l-4 3-7 1c-4-1-5-1-12 2-13 7-25 21-33 37l-4 8c-3 4-3 7-3 17l2 17a65 65 0 0 0 8 18h-2c0 3-2 1-5-6zm146-64c-2-3-2-5 0-9 3-6 10-5 13 1v5c-2 5-9 6-13 3zm-1-18c-1-1 0-2 1-3 2-2 4-1 4 2 0 2 0 3-2 3s-3-1-3-2zm-3-9c-1-4 1-6 4-4 2 0 2 1 2 3-2 4-4 5-6 1zm20 1v-3l2-1c2 0 2 3 1 4h-3zm-56-10l1-1h1l-1 2-1-1zm-5-10c-6-4-7-10-2-16 3-3 4-3 8-3l7 2c5 5 2 14-4 17-4 2-4 2-9 0z"/>
  <path fill="#b6906a" opacity="0.8" d="M144 104l2-1 1 1-1 1-2-1zm0-6l1-1v2l-1-1zM1 83c-1-2 3-13 6-20 6-13 21-27 35-33l10-6c4-4 9-5 12-3l8 2 11 1c-3 1-3 2 0 3 14 3 23 6 29 10 7 4 17 14 21 21l4 5c2 0-1-6-5-12-4-5-5-6-5-10s-1-5-3-7l-3-3c0-2-1-2-2 0 0 1 0 1 0 0 0-4 3-4 3-1l3 3c2 1 4 7 3 10-1 1 0 3 3 5 5 6 13 19 9 17-1-1-2 1-1 3l2 4c0 2-1 1-3-3a88 88 0 0 0-17-23 56 56 0 0 0-44-17c-7 1-8 1-11 4s-3 3-9 2c-6 0-7 0-14 4-13 6-26 21-33 37-3 7-3 7-6 7H1zm7-8v-1l2-2 3-6 1-2-3 1c-1-1-1-2 2-3s6-4 6-6l2-2 7-6c7-8 23-16 27-15 4 2 9 1 11-2s3-4 7-4h5s2-1 1-2a796 796 0 0 0-14-2c-5-2-11-1-13 3l-8 5c-10 4-20 11-26 20l-4 5a38 38 0 0 0-9 19c-1 2 0 4 2 2l1-2zm134 3v-2 2zm0-7v-3c-1-2-1-2 0 0l1 3h-1zm12-7c-2-2-2-3-2-5 2-4 4-7 6-6v1c-3 1-5 4-4 7 0 2 1 3 3 4l2 1-5-2zm10-1c2-1 2-2 2-3v-1c1 1 1 2-1 4l-3 3 2-3zm-1-8l-2-2c1 0 5 3 4 4l-2-2zm6-17v-2c2-2 5 0 4 2s-3 2-4 0zm2 0l-1-1-1 1 1 1 1-1zm-66-8l-5-2c1-1 10 3 13 4 4 3-1 1-8-2zm-15-4c-5-1-4-2 0-2l4 2h-4zm18-8c-10-5-3-20 8-17 11 2 9 15-1 19-2 0-4 0-7-2zm12-3c5-6 1-13-7-13-4 0-9 5-9 8 0 4 4 7 6 6l1 1c0 2 6 1 9-2z"/>
</svg>
