<svg xmlns="http://www.w3.org/2000/svg" viewBox="0 360 670 13">
  <path d="M440.36328 352.00195l-1.3125.52539-1.3125.52539 1.91602.07813 1.91797.08008-.60547-.60547-.60352-.60352zm-84.625 10.69336l-5 .74024-5 .74218-35-.11328-35-.11523-84.5.01172-84.5.00976-16.999999-.13086-17-.13086-32 .06055-31.9999998.05859-26.0000002.06836-26 .06641-29.5-.07812-29.500001-.07813-23.75.20117-23.75.20117v4l24.75.23047 24.75.22852 6.000001-.0918 6-.09179 68-.07422 68-.07422 72.249999.1875 72.24805.1875.00195.79492v.79297l3.52539-.66016 3.52735-.66211 26.72265-.13476 26.72461-.13282 4.85742.82618 4.85547.82812-.51758-.83789-.51757-.83594 22.6621-.30468 22.66016-.30469 60.5-.29688 60.5-.29687 4-.65625 4-.6582-2 .90429-2 .90235 17.89063.03125 17.89257.0332 5.10743-.81055 5.10937-.81054.54297.86914.54492.86914 2.95508.07031 2.95703.07226 7 .18555 7 .1875 15-.3125 15-.3125-1.25-.5039-1.25-.50391v-1.83399h7.0625l.53125 1.38282.5293 1.38086 4.1875-.25977 4.18945-.25977 15-.70507 15-.70508 6 .83203 6 .83398 5-.54687 5-.54688-3-.62695-3-.625 16.5.43164 16.5.43164 7-.02344 7-.02148 14.5-1.00195 14.5-1 1-.40625 1-.4043-11-.22461-11-.22461-3.5.36328-3.5.36133-5.5-.12695-5.5-.12696-56.5-.23632-56.5-.23633-68 .48437-68 .48243-11-.59375-11-.59571zm259.5 1.34766l1.25.50586 1.25.5039h-5l1.25-.5039 1.25-.50586zm-121.875.95898l.60352.60352.60547.60547-1.91797-.08008-1.91602-.07813 1.3125-.52539 1.3125-.52539z"/>
</svg>
