<svg xmlns="http://www.w3.org/2000/svg" viewBox="0 0 200 200">
  <path d="M80 191l-7-1-7-1h-4l-4-1-4-1h-4l-4-1-3-1h-3l-2-1-2-1h-2l-2-1-2-1h-2l-1-1-1-1h-2l-1-1-1-1h-2l-2-2-1-1c-2 0-9-7-9-8v-1l-1-2-1-1v-1l-1-2-1-3 1-3 1-2v-2l1-1c0-2 6-7 7-7l2-2 2-1 1-1h1l2-1 1-1h1l2-1 1-1h2l2-1 2-1h2l2-1 2-1h3l2-1 3-1h3l3-1 3-1h8l1 1c2 0 3 2 3 3l1 1 1 2v2h-4l-4 1h-4l-3 1-3 1h-2l-3 1-3 1h-2l-2 1-2 1h-2l-1 1-1 1h-2l-2 1-2 1h-1l-1 1-2 1h-1l-2 2-2 1-3 3v1l-1 3 1 2v1c0 2 2 3 3 3l2 2 2 1 2 1 2 2h1l2 1 1 1h2l2 1 2 1h2l2 1 2 1h3l2 1 4 1h4l4 1 4 1h6l6 1 22 1a144 144 0 0 0 37-3l4-1h3l4-1 2-1h3l2-1 2-1h2l2-1 2-1h2l1-1 2-1h1l1-1 2-1h1l1-1 2-1 2-2c1 0 3-1 3-3l1-1v-5l-1-1-3-3-2-2-3-2-1-1h-2l-1-1-1-1h-2l-2-1-2-1h-2l-2-1-2-1h-2l-2-1-3-1h-3l-4-1-4-1h-4l-4-1-4-1h1l1-2v-1l1-1 2-3 6-1h4l3 1 4 1h2l3 1 3 1h2l2 1 2 1h2l2 1 2 1h2l2 1 1 1h1l2 1 1 1h1l1 1c1 0 4 2 6 5l5 6 1 1 1 1v2l1 4-1 4v2l-2 2-1 2-4 4-3 2-3 2-1 1-1 1h-1l-2 1-1 1h-1l-2 1-2 1h-2l-2 1-2 1h-2l-2 1-2 1h-2l-3 1-3 1h-4l-3 1-5 1h-4l-8 1-7 1H80zm16-38l-3-4-3-4-4-4-3-4-3-4-4-4-2-4-3-3-3-3-2-4-2-2-2-3-2-3-2-2-2-2-1-2-1-2-2-2v-2l-1-1-1-1v-2l-1-2-1-2v-1l-1-3-1-2v-6l-1-5-1-1 1-2 1-5v-5l1-2 1-2v-2l1-2 1-2v-1l1-1 1-2 2-2 2-3 2-3 6-6 3-2 3-2 1-1 1-1h2l1-1 1-1h2l2-1 2-1h2l4-1 3-1h12l4 1 4 1h2l2 1 2 1h2l1 1 2 1h1l2 2 2 1 3 3 4 2 2 3 3 3 3 4v1l1 1 1 2v1l1 1 1 2v1l1 2 1 2v3l1 2 1 11-1 11-1 2v3l-1 1-1 2v2l-1 2-1 1v1l-1 2-1 2-2 2v1l-1 1-1 2-2 2-2 4-3 3-3 4-4 4-3 4-3 4-4 5-4 4-4 4-3 4-6 7-1-1zm8-64h2l3-2 2-1 7-7v-1l1-1 1-2V59l-1-1-1-1v-1l-4-5-5-4h-1l-1-1-1-1H90l-2 1-1 1h-1c-1 0-8 7-8 9l-1 1-1 1v1l-1 8 1 7v2l1 2 1 1 3 5 5 3 1 1 1 1h2l7 1 7-1z"/>
</svg>