<svg xmlns="http://www.w3.org/2000/svg" viewBox="92 76 20 19">
  <path d="M99.973569 76.734333l-1.016992.809252-1.016476.808739-.595313 1.165302-.595312 1.165304v2.443779l.613918 1.212845.613915 1.212847 1.943034 2.403985 1.943547 2.403989h.40928l1.93425-2.263945 1.93476-2.26446.65785-1.241269.65784-1.241785-.0212-1.455208-.0217-1.455208-.57568-1.123963-.57567-1.12448-1.09968-.727604-1.10019-.72812h-2.04484zm1.567861 2.778125h1.31724l.64957.649573.64957.649055v1.636078l-.64957.649054-.64957.649573h-1.51929l-.61909-.659391-.6196-.65939v-1.675352l.72037-.619599zm-2.621543 7.556127l-1.669666.344683-1.669664.344681-.804603.406178-.804603.406177-.595313.544153-.595312.544669v1.423686l.573609.729154.573608.729155.947746.409794.947745.409795 1.5875.326078 1.5875.326078 3.042706.02119 3.04271.02119 1.80351-.381889 1.80351-.382407 1.09657-.605132 1.09709-.605647.38137-.679545.38137-.680061-.17776-.708485-.17777-.708999-.99425-.657842-.99374-.657841-1.80971-.446484-1.80971-.446485-.43253.272336-.43253.272335-.0791.398942-.0786.398425 1.13688.1757 1.1374.175699 1.22524.400492 1.22577.399976.44183.488344.44184.488341-.71159.559655-.71158.559657-1.35289.420129-1.35237.420129-3.04271.133842-3.04271.134359-1.955951-.415997-1.955956-.415999-.954463-.495577-.954466-.49506v-.725022l1.058333-.597378 1.058334-.596863 1.455208-.313159 1.455208-.31316.199472-.171048.198954-.170532-.37052-.507463z"/>
</svg>
